Disc 2 Of 9

7.Dirty Movie
8.Susie
9.A Fistful Of Travellers Cheques
10.Gino, Full Story And Pics
11.Eddie Monsoon. A Life

Note. Video/Audio Bitrate And Resolution Height varies slightly in all 5 clips

Format                                   : MPEG-4
Format profile                           : Base Media / Version 2
Codec ID                                 : mp42
File size                                : 1.22 GiB
Duration                                 : 2h 42mn 51s
Overall bit rate mode                    : Variable
Overall bit rate                         : 1 072 Kbps

Video
ID                                       : 1
Format                                   : AVC
Format/Info                              : Advanced Video Codec
Format profile                           : Main@L3.0
Format settings, CABAC                   : Yes
Format settings, ReFrames                : 1 frame
Codec ID                                 : avc1
Codec ID/Info                            : Advanced Video Coding
Duration                                 : 2h 42mn 51s
Bit rate mode                            : Variable
Bit rate                                 : 994 Kbps
Width                                    : 720 pixels
Height                                   : 552 pixels
Display aspect ratio                     : 4:3
Frame rate mode                          : Constant
Frame rate                               : 25.000 fps
Color space                              : YUV
Chroma subsampling                       : 4:2:0
Bit depth                                : 8 bits
Scan type                                : Progressive
Bits/(Pixel*Frame)                       : 0.100
Stream size                              : 1.135 GiB (93%)
Writing library                          : x264 core

Audio
ID                                       : 2
Format                                   : AAC
Format/Info                              : Advanced Audio Codec
Format profile                           : LC
Codec ID                                 : 40
Duration                                 : 2h 42mn 51s
Bit rate mode                            : Variable
Bit rate                                 : 74.8 Kbps
Maximum bit rate                         : 88.5 Kbps
Channel(s)                               : 2 channels
Channel positions                        : Front: L R
Sampling rate                            : 48.0 KHz
Compression mode                         : Lossy
Stream size                              : 85 MiB (7%)
Language                                 : English
Subtitles                                : None

IMDB.  http://www.imdb.com/title/tt0083402/

Screens.  http://bayimg.com/aannbAAEB  

          http://bayimg.com/AANnDAaEb

          http://bayimg.com/aannfaaEB

          http://bayimg.com/aannhaAEb

          http://bayimg.com/aanniAAEB

Enjoy.